HIERARCHY
ROOT Hip
{
	OFFSET 0 1.131 0.0052
	CHANNELS 6 Xposition Yposition Zposition Xrotation Yrotation Zrotation
	JOINT Abdomen
	{
		OFFSET 0 -0.047353 -0.05
		CHANNELS 3 Xrotation Zrotation Yrotation
		JOINT Chest
		{
			OFFSET 0 0.132153 0.007439
			CHANNELS 3 Xrotation Zrotation Yrotation
			JOINT Neck
			{
				OFFSET 0 0.3078 0.006161
				CHANNELS 3 Xrotation Zrotation Yrotation
				JOINT Head_comp
				{
					OFFSET 0 0.0884 0.013
					CHANNELS 3 Xrotation Yrotation Zrotation
					End Site
					{
						OFFSET -0 0.156 0.0624
					}
				}
			}
			JOINT Left_Collar
			{
				OFFSET 0.02282 0.250342 0.017193
				CHANNELS 2 Yrotation Zrotation
				JOINT Left_Shoulder
				{
					OFFSET 0.15421 0 0
					CHANNELS 3 Xrotation Yrotation Zrotation
					JOINT Left_Forearm
					{
						OFFSET 0.265212 0 0
						CHANNELS 2 Yrotation Xrotation
						JOINT Left_Hand
						{
							OFFSET 0.27571 0 0
							CHANNELS 2 Zrotation Yrotation
							JOINT L1ProxPhalanx
							{
								OFFSET 0.014142 0.001733 0.014142
								CHANNELS 3 Yrotation Zrotation Xrotation
								JOINT L1MidPhalanx
								{
									OFFSET 0.04 0 0
									CHANNELS 1 Zrotation
									JOINT L1DistPhalanx
									{
										OFFSET 0.035 0 0
										CHANNELS 1 Zrotation
										End Site
										{
											OFFSET 0.029 -0 -0
										}
									}
								}
							}
							JOINT L2ProxPhalanx
							{
								OFFSET 0.0821037 0.001578 0.0219996
								CHANNELS 2 Yrotation Zrotation
								JOINT L2MidPhalanx
								{
									OFFSET 0.04 0 0
									CHANNELS 1 Zrotation
									JOINT L2DistPhalanx
									{
										OFFSET 0.028 0 0
										CHANNELS 1 Zrotation
										End Site
										{
											OFFSET 0.02 -0 -0
										}
									}
								}
							}
							JOINT L3ProxPhalanx
							{
								OFFSET 0.083 0 0
								CHANNELS 2 Yrotation Zrotation
								JOINT L3MidPhalanx
								{
									OFFSET 0.053 0 0
									CHANNELS 1 Zrotation
									JOINT L3DistPhalanx
									{
										OFFSET 0.03 0 0
										CHANNELS 1 Zrotation
										End Site
										{
											OFFSET 0.023 -0 -0
										}
									}
								}
							}
							JOINT L4ProxPhalanx
							{
								OFFSET 0.077274 -0.000761 -0.0207055
								CHANNELS 2 Yrotation Zrotation
								JOINT L4MidPhalanx
								{
									OFFSET 0.05 0 0
									CHANNELS 1 Zrotation
									JOINT L4DistPhalanx
									{
										OFFSET 0.03 0 0
										CHANNELS 1 Zrotation
										End Site
										{
											OFFSET 0.023 -0 -0
										}
									}
								}
							}
							JOINT L5ProxPhalanx
							{
								OFFSET 0.0675499 -0.001644 -0.039
								CHANNELS 2 Yrotation Zrotation
								JOINT L5MidPhalanx
								{
									OFFSET 0.04 0 0
									CHANNELS 1 Zrotation
									JOINT L5DistPhalanx
									{
										OFFSET 0.021 0 0
										CHANNELS 1 Zrotation
										End Site
										{
											OFFSET 0.022 -0 -0
										}
									}
								}
							}
						}
					}
				}
			}
			JOINT Right_Collar
			{
				OFFSET -0.02282 0.250342 0.017193
				CHANNELS 2 Yrotation Zrotation
				JOINT Right_Shoulder
				{
					OFFSET -0.15421 0 0
					CHANNELS 3 Xrotation Yrotation Zrotation
					JOINT Right_Forearm
					{
						OFFSET -0.265212 0 0
						CHANNELS 2 Yrotation Xrotation
						JOINT Right_Hand
						{
							OFFSET -0.27571 3e-006 0
							CHANNELS 2 Zrotation Yrotation
							JOINT R1ProxPhalanx
							{
								OFFSET -0.014142 0.001733 0.014142
								CHANNELS 3 Yrotation Zrotation Xrotation
								JOINT R1MidPhalanx
								{
									OFFSET -0.04 0 0
									CHANNELS 1 Zrotation
									JOINT R1DistPhalanx
									{
										OFFSET -0.035 0 0
										CHANNELS 1 Zrotation
										End Site
										{
											OFFSET -0.029 -0 -0
										}
									}
								}
							}
							JOINT R2ProxPhalanx
							{
								OFFSET -0.0821037 0.001578 0.0219996
								CHANNELS 2 Yrotation Zrotation
								JOINT R2MidPhalanx
								{
									OFFSET -0.04 0 0
									CHANNELS 1 Zrotation
									JOINT R2DistPhalanx
									{
										OFFSET -0.028 0 0
										CHANNELS 1 Zrotation
										End Site
										{
											OFFSET -0.02 -0 -0
										}
									}
								}
							}
							JOINT R3ProxPhalanx
							{
								OFFSET -0.083 0 0
								CHANNELS 2 Yrotation Zrotation
								JOINT R3MidPhalanx
								{
									OFFSET -0.053 0 0
									CHANNELS 1 Zrotation
									JOINT R3DistPhalanx
									{
										OFFSET -0.03 0 0
										CHANNELS 1 Zrotation
										End Site
										{
											OFFSET -0.023 -0 -0
										}
									}
								}
							}
							JOINT R4ProxPhalanx
							{
								OFFSET -0.077274 -0.000761 -0.0207055
								CHANNELS 2 Yrotation Zrotation
								JOINT R4MidPhalanx
								{
									OFFSET -0.05 0 0
									CHANNELS 1 Zrotation
									JOINT R4DistPhalanx
									{
										OFFSET -0.03 0 0
										CHANNELS 1 Zrotation
										End Site
										{
											OFFSET -0.023 -0 -0
										}
									}
								}
							}
							JOINT R5ProxPhalanx
							{
								OFFSET -0.0675499 -0.001644 -0.039
								CHANNELS 2 Yrotation Zrotation
								JOINT R5MidPhalanx
								{
									OFFSET -0.04 0 0
									CHANNELS 1 Zrotation
									JOINT R5DistPhalanx
									{
										OFFSET -0.021 0 0
										CHANNELS 1 Zrotation
										End Site
										{
											OFFSET -0.022 -0 -0
										}
									}
								}
							}
						}
					}
				}
			}
		}
	}
	JOINT Left_Thigh
	{
		OFFSET 0.1118 -0.1612 -0.0442
		CHANNELS 3 Xrotation Zrotation Yrotation
		JOINT Left_Shin
		{
			OFFSET 0 -0.477856 0
			CHANNELS 1 Xrotation
			JOINT Left_Foot
			{
				OFFSET 0 -0.431952 0
				CHANNELS 2 Xrotation Zrotation
				JOINT Left_Toe
				{
					OFFSET 0 -0.0442 0.119
					CHANNELS 1 Xrotation
					End Site
					{
						OFFSET -0 -0 0.07
					}
				}
			}
		}
	}
	JOINT Right_Thigh
	{
		OFFSET -0.1118 -0.1612 -0.0442
		CHANNELS 3 Xrotation Zrotation Yrotation
		JOINT Right_Shin
		{
			OFFSET 0 -0.477856 0
			CHANNELS 1 Xrotation
			JOINT Right_Foot
			{
				OFFSET 0 -0.431952 0
				CHANNELS 2 Xrotation Zrotation
				JOINT Right_Toe
				{
					OFFSET 0 -0.0442 0.119
					CHANNELS 1 Xrotation
					End Site
					{
						OFFSET -0 -0 0.07
					}
				}
			}
		}
	}
}
MOTION
Frames: 15
Frame Time: 0.009975
-0.097806 -0.0602085 0.0530694 4.86641e-014 7.82792e-008 -5.10934e-006 0 -0 0 0 -0 0 0 -0 0 -0.713389 0.280603 -2.67343e-011 6.18227 -32.0457 10.8926 -13.9887 -29.3193 -103.957 -1.90222 0.365203 -4.47022 -27.5605 -21.5864 106.421 -7.48048 -7.22872 0.359187 -7.00922 -0.766388 -1.05378 4.72541 -4.46271 -1.39298 -3.41729 8.71841 0.0688695 -13.7112 -8.22532 12.9011 1.57409 -20.5968 -30.2417 4.53871 2.3941 25.8028 2.30856 56.0031 99.6116 0.747249 -0.244356 -0.581581 38.3616 28.6721 76.643 24.1294 25.9637 11.6428 16.9159 26.3764 18.3251 -0.143587 20.073 29.6652 26.2997 -7.92899 27.2889 29.648 21.9809 -8.31251 23.7003 32.5181 27.4367 0.874766 -0.881314 -0.0134557 0.0240216 -0.898684 0.881422 0 0.886172 -0.881312 -0.0136311 8.49505e-007 -0.886068 0.881422 0 
-0.0979841 -0.0602099 0.0533336 5.58216e-013 7.97887e-008 -5.1093e-006 0 -0 0 0 -0 0 0 -0 0 -0.713412 0.281123 -2.62024e-011 6.18227 -32.0457 10.8926 -13.9887 -29.3193 -103.957 -1.90222 0.365203 -4.47022 -27.5605 -21.5864 106.421 -7.48048 -7.22872 0.359187 -7.00922 -0.766388 -1.05378 4.72541 -4.46271 -1.39298 -3.41729 8.71841 0.0688695 -13.7112 -8.22532 12.9011 1.57409 -20.5968 -30.2417 4.1691 2.5156 26.6571 3.17444 56.9083 98.7511 0.686396 -0.224456 -0.534219 38.285 28.5517 76.1091 24.5121 26.4139 11.9102 17.1517 26.8565 18.5627 -0.117557 20.5013 30.1999 26.6305 -8.05639 27.9082 30.1116 22.3041 -8.2252 24.2505 32.9957 27.9049 0.891406 -0.870095 -0.0135372 0.0240216 -0.915325 0.870205 0 0.902813 -0.870092 -0.0137104 1.70755e-006 -0.90271 0.870205 0 
-0.0981631 -0.0602112 0.0535898 8.16026e-013 8.1952e-008 -5.10924e-006 0 -0 0 0 -0 0 0 -0 0 -0.713435 0.281646 -2.55573e-011 6.18227 -32.0457 10.8926 -13.9887 -29.3193 -103.957 -1.90222 0.365203 -4.47022 -27.5605 -21.5864 106.421 -7.48048 -7.22872 0.359187 -7.00922 -0.766388 -1.05378 4.72541 -4.46271 -1.39298 -3.41729 8.71841 0.0688695 -13.7112 -8.22532 12.9011 1.57409 -20.5968 -30.2417 3.80479 2.63541 27.4204 4.01837 57.8012 97.8109 0.626416 -0.204843 -0.487537 38.2083 28.4313 75.5753 24.8948 26.8641 12.1777 17.3875 27.3366 18.8003 -0.0915275 20.9297 30.7346 26.9613 -8.18379 28.5275 30.5752 22.6272 -8.13789 24.8007 33.4733 28.373 0.907537 -0.858823 -0.0136037 0.0240216 -0.931457 0.858936 0 0.918943 -0.85882 -0.0137746 1.70755e-006 -0.918842 0.858936 0 
-0.0983424 -0.0602126 0.0538374 8.29482e-013 8.33427e-008 -5.1092e-006 0 -0 0 0 -0 0 0 -0 0 -0.713456 0.282171 -2.47928e-011 6.18227 -32.0457 10.8926 -13.9887 -29.3193 -103.957 -1.90222 0.365203 -4.47022 -27.5605 -21.5864 106.421 -7.48048 -7.22872 0.359187 -7.00922 -0.766388 -1.05378 4.72541 -4.46271 -1.39298 -3.41729 8.71841 0.0688695 -13.7112 -8.22532 12.9011 1.57409 -20.5968 -30.2417 3.44643 2.7533 28.094 4.83496 58.6818 96.7973 0.567417 -0.185549 -0.441618 38.1317 28.3109 75.0414 25.2775 27.3143 12.4451 17.6233 27.8167 19.038 -0.0654979 21.358 31.2693 27.2921 -8.31118 29.1467 31.0388 22.9503 -8.05058 25.3509 33.9509 28.8412 0.923136 -0.847529 -0.0136556 0.0240216 -0.947056 0.847644 0 0.934542 -0.847527 -0.0138243 1.70755e-006 -0.934441 0.847644 0 
-0.0985215 -0.0602139 0.0540763 8.56633e-013 8.40411e-008 -5.10918e-006 0 -0 0 0 -0 0 0 -0 0 -0.713478 0.282696 -2.3902e-011 6.18227 -32.0457 10.8926 -13.9887 -29.3193 -103.957 -1.90222 0.365203 -4.47022 -27.5605 -21.5864 106.421 -7.48048 -7.22872 0.359187 -7.00922 -0.766388 -1.05378 4.72541 -4.46271 -1.39298 -3.41729 8.71841 0.0688695 -13.7112 -8.22532 12.9011 1.57409 -20.5968 -30.2417 3.09477 2.86904 28.6797 5.61929 59.5498 95.7176 0.509519 -0.166616 -0.396557 38.055 28.1905 74.5075 25.6602 27.7645 12.7125 17.8592 28.2968 19.2756 -0.0394684 21.7863 31.8039 27.6229 -8.43858 29.766 31.5023 23.2735 -7.96327 25.9011 34.4284 29.3094 0.938177 -0.836248 -0.0136934 0.0240216 -0.962098 0.836365 0 0.949583 -0.836245 -0.0138599 8.75118e-007 -0.949483 0.836365 0 
-0.0986998 -0.0602151 0.0543058 7.08575e-015 8.53593e-008 -5.10915e-006 0 -0 0 0 -0 0 0 -0 0 -0.713498 0.28322 -2.28787e-011 6.18227 -32.0457 10.8926 -13.9887 -29.3193 -103.957 -1.90222 0.365203 -4.47022 -27.5605 -21.5864 106.421 -7.48048 -7.22872 0.359187 -7.00922 -0.766388 -1.05378 4.72541 -4.46271 -1.39298 -3.41729 8.71841 0.0688695 -13.7112 -8.22532 12.9011 1.57409 -20.5968 -30.2417 2.75063 2.98233 29.18 6.36698 60.404 94.5798 0.452862 -0.148089 -0.35246 37.9784 28.0701 73.9736 26.0429 28.2147 12.9799 18.095 28.7769 19.5132 -0.0134388 22.2146 32.3386 27.9538 -8.56598 30.3853 31.9659 23.5966 -7.87596 26.4513 34.906 29.7776 0.952633 -0.82502 -0.0137178 0.0240216 -0.976556 0.825139 0 0.964039 -0.825017 -0.013882 8.2816e-007 -0.96394 0.825139 0 
-0.0988765 -0.0602163 0.0545256 -1.94127e-013 8.66237e-008 -5.10911e-006 0 -0 0 0 -0 0 0 -0 0 -0.713518 0.283741 -2.17161e-011 6.18227 -32.0457 10.8926 -13.9887 -29.3193 -103.957 -1.90222 0.365203 -4.47022 -27.5605 -21.5864 106.421 -7.48048 -7.22872 0.359187 -7.00922 -0.766388 -1.05378 4.72541 -4.46271 -1.39298 -3.41729 8.71841 0.0688695 -13.7112 -8.22532 12.9011 1.57409 -20.5968 -30.2417 2.41503 3.09284 29.5981 7.07412 61.2429 93.3932 0.397609 -0.130021 -0.309457 37.9386 28.008 73.698 26.2405 28.4472 13.118 18.2167 29.0248 19.6359 0 22.4358 32.6146 28.1246 -8.63175 30.7051 32.2053 23.7634 -7.83088 26.7354 35.1526 30.0193 0.966472 -0.813892 -0.0137294 0.0240216 -0.990397 0.814013 0 0.977879 -0.813889 -0.0138914 1.70755e-006 -0.977782 0.814013 0 
-0.0990506 -0.0602174 0.0547348 -2.9436e-013 8.78314e-008 -5.10908e-006 0 -0 0 0 -0 0 0 -0 0 -0.713536 0.284256 -2.0348e-011 6.18227 -32.0457 10.8926 -13.9887 -29.3193 -103.957 -1.90222 0.365203 -4.47022 -27.5605 -21.5864 106.421 -7.48048 -7.22872 0.359187 -7.00922 -0.766388 -1.05378 4.72541 -4.46271 -1.39298 -3.41729 8.71841 0.0688695 -13.7112 -8.22532 12.9011 1.57409 -20.5968 -30.2417 2.08914 3.20018 29.9379 7.73729 62.064 92.1681 0.343954 -0.112475 -0.267698 37.9386 28.008 73.698 26.2405 28.4472 13.118 18.2167 29.0248 19.6359 0 22.4358 32.6146 28.1246 -8.63175 30.7051 32.2053 23.7634 -7.83088 26.7354 35.1526 30.0193 0.979649 -0.802927 -0.0137292 0.0240216 -1.00357 0.803049 0 0.991055 -0.802924 -0.013889 1.70755e-006 -0.99096 0.803049 0 
-0.099221 -0.0602185 0.0549328 2.79781e-013 8.89767e-008 -5.10904e-006 0 -0 0 0 -0 0 0 -0 0 -0.713554 0.284763 -1.88749e-011 6.18227 -32.0457 10.8926 -13.9887 -29.3193 -103.957 -1.90222 0.365203 -4.47022 -27.5605 -21.5864 106.421 -7.48048 -7.22872 0.359187 -7.00922 -0.766388 -1.05378 4.72541 -4.46271 -1.39298 -3.41729 8.71841 0.0688695 -13.7112 -8.22532 12.9011 1.57409 -20.5968 -30.2417 1.77436 3.30388 30.204 8.35346 62.8638 90.9169 0.292129 -0.0955281 -0.227363 37.9386 28.008 73.698 26.2405 28.4472 13.118 18.2167 29.0248 19.6359 0 22.4358 32.6146 28.1246 -8.63175 30.7051 32.2053 23.7634 -7.83088 26.7354 35.1526 30.0193 0.992121 -0.792191 -0.0137181 0.0240216 -1.01605 0.792315 0 1.00353 -0.792188 -0.0138758 2.41484e-006 -1.00343 0.792315 0 
-0.0993868 -0.0602195 0.0551192 -6.98192e-013 9.00581e-008 -5.10901e-006 0 -0 0 0 -0 0 0 -0 0 -0.713571 0.285258 -1.72592e-011 6.18227 -32.0457 10.8926 -13.9887 -29.3193 -103.957 -1.90222 0.365203 -4.47022 -27.5605 -21.5864 106.421 -7.48048 -7.22872 0.359187 -7.00922 -0.766388 -1.05378 4.72541 -4.46271 -1.39298 -3.41729 8.71841 0.0688695 -13.7112 -8.22532 12.9011 1.57409 -20.5968 -30.2417 1.47242 3.40335 30.402 8.9199 63.6376 89.6539 0.242418 -0.0792723 -0.188673 37.9386 28.008 73.698 26.2405 28.4472 13.118 18.2167 29.0248 19.6359 0 22.4358 32.6146 28.1246 -8.63175 30.7051 32.2053 23.7634 -7.83088 26.7354 35.1526 30.0193 1.00386 -0.781753 -0.0136976 0.0240216 -1.02778 0.781878 0 1.01526 -0.78175 -0.0138532 1.70755e-006 -1.01517 0.781878 0 
-0.0995463 -0.0602205 0.0552929 3.84501e-014 9.1071e-008 -5.10898e-006 0 -0 0 0 -0 0 0 -0 0 -0.713586 0.285739 -1.54822e-011 6.18227 -32.0457 10.8926 -13.9887 -29.3193 -103.957 -1.90222 0.365203 -4.47022 -27.5605 -21.5864 106.421 -7.48048 -7.22872 0.359187 -7.00922 -0.766388 -1.05378 4.72541 -4.46271 -1.39298 -3.41729 8.71841 0.0688695 -13.7112 -8.22532 12.9011 1.57409 -20.5968 -30.2417 1.18546 3.49789 30.5384 9.43411 64.3793 88.3966 0.195173 -0.063823 -0.151902 37.9386 28.008 73.698 26.2405 28.4472 13.118 18.2167 29.0248 19.6359 0 22.4358 32.6146 28.1246 -8.63175 30.7051 32.2053 23.7634 -7.83088 26.7354 35.1526 30.0193 1.0148 -0.771708 -0.0136691 0.0240216 -1.03873 0.771834 0 1.0262 -0.771705 -0.0138227 2.41484e-006 -1.02611 0.771834 0 
-0.0996977 -0.0602213 0.055453 3.26421e-013 9.24136e-008 -5.10894e-006 0 -0 0 0 -0 0 0 -0 0 -0.713601 0.2862 -1.35384e-011 6.18227 -32.0457 10.8926 -13.9887 -29.3193 -103.957 -1.90222 0.365203 -4.47022 -27.5605 -21.5864 106.421 -7.48048 -7.22872 0.359187 -7.00922 -0.766388 -1.05378 4.72541 -4.46271 -1.39298 -3.41729 8.71841 0.0688695 -13.7112 -8.22532 12.9011 1.57409 -20.5968 -30.2417 0.916212 3.58658 30.6209 9.89355 65.0808 87.1668 0.150844 -0.0493271 -0.117401 37.9386 28.008 73.698 26.2405 28.4472 13.118 18.2167 29.0248 19.6359 0 22.4358 32.6146 28.1246 -8.63175 30.7051 32.2053 23.7634 -7.83088 26.7354 35.1526 30.0193 1.02488 -0.762171 -0.0136343 0.0240216 -1.04881 0.762298 0 1.03629 -0.762168 -0.013786 1.50077e-006 -1.0362 0.762298 0 
-0.0998387 -0.0602221 0.0555981 1.7152e-013 9.32279e-008 -5.10891e-006 0 -0 0 0 -0 0 0 -0 0 -0.713614 0.286636 -1.1426e-011 6.18227 -32.0457 10.8926 -13.9887 -29.3193 -103.957 -1.90222 0.365203 -4.47022 -27.5605 -21.5864 106.421 -7.48048 -7.22872 0.359187 -7.00922 -0.766388 -1.05378 4.72541 -4.46271 -1.39298 -3.41729 8.71841 0.0688695 -13.7112 -8.22532 12.9011 1.57409 -20.5968 -30.2417 0.668235 3.66822 30.6586 10.2953 65.7313 85.9918 0.110018 -0.0359765 -0.0856262 37.9386 28.008 73.698 26.2405 28.4472 13.118 18.2167 29.0248 19.6359 0 22.4358 32.6146 28.1246 -8.63175 30.7051 32.2053 23.7634 -7.83088 26.7354 35.1526 30.0193 1.03402 -0.753289 -0.0135956 0.0240216 -1.05795 0.753417 0 1.04542 -0.753287 -0.0137456 7.98278e-007 -1.04533 0.753417 0 
-0.0999663 -0.0602228 0.0557261 1.94811e-014 9.36372e-008 -5.1089e-006 0 -0 0 0 -0 0 0 -0 0 -0.713625 0.28704 -9.14264e-012 6.18227 -32.0457 10.8926 -13.9887 -29.3193 -103.957 -1.90222 0.365203 -4.47022 -27.5605 -21.5864 106.421 -7.48048 -7.22872 0.359187 -7.00922 -0.766388 -1.05378 4.72541 -4.46271 -1.39298 -3.41729 8.71841 0.0688695 -13.7112 -8.22532 12.9011 1.57409 -20.5968 -30.2417 0.446356 3.74121 30.6626 10.6355 66.3164 84.9075 0.0734876 -0.0240309 -0.0571951 37.9386 28.008 73.698 26.2405 28.4472 13.118 18.2167 29.0248 19.6359 0 22.4358 32.6146 28.1246 -8.63175 30.7051 32.2053 23.7634 -7.83088 26.7354 35.1526 30.0193 1.04208 -0.745255 -0.0135556 0.0240216 -1.06602 0.745384 0 1.05349 -0.745253 -0.013704 2.23025e-006 -1.0534 0.745384 0 
-0.100076 -0.0602233 0.0558345 -4.53497e-013 9.43034e-008 -5.10888e-006 0 -0 0 0 -0 0 0 -0 0 -0.713636 0.287403 -6.70141e-012 6.18227 -32.0457 10.8926 -13.9887 -29.3193 -103.957 -1.90222 0.365203 -4.47022 -27.5605 -21.5864 106.421 -7.48048 -7.22872 0.359187 -7.00922 -0.766388 -1.05378 4.72541 -4.46271 -1.39298 -3.41729 8.71841 0.0688695 -13.7112 -8.22532 12.9011 1.57409 -20.5968 -30.2417 0.257395 3.80327 30.6461 10.9084 66.8159 83.9626 0.0423773 -0.0138577 -0.0329821 37.9386 28.008 73.698 26.2405 28.4472 13.118 18.2167 29.0248 19.6359 0 22.4358 32.6146 28.1246 -8.63175 30.7051 32.2053 23.7634 -7.83088 26.7354 35.1526 30.0193 1.04891 -0.738332 -0.0135177 0.0240216 -1.07284 0.738461 0 1.06031 -0.73833 -0.0136647 2.31175e-006 -1.06023 0.738461 0 
